<?xml version="1.0" encoding="UTF-8"?> <svg xmlns="http://www.w3.org/2000/svg" viewBox="0 0 147.4 45.4" style="enable-background:new 0 0 147.4 45.4" xml:space="preserve"><style>.st0{fill:#17395e}.st1{fill:#fff}.st2{fill:#2d66b4}.st3{fill:#ff7100}</style><path class="st0" d="M63.3 12.3c-3.5 0-6.4 1.1-8.5 3.4-2.1 2.2-3.2 5.2-3.2 8.8v14.9h5.9V25.8c0-5.1 1.9-7.6 5.8-7.6 1.9 0 3.2.6 4.2 1.8 1 1.3 1.5 3.1 1.5 5.6v13.9h5.9v-15c0-3.6-1.1-6.6-3.2-8.8-2.2-2.2-5-3.4-8.4-3.4zM92.7 12.3c-2.2 0-4.4.6-6.4 1.9v6.5c1.1-.9 2-1.6 2.8-2 .9-.4 1.9-.6 3.2-.6 2.2 0 4.1.8 5.6 2.3 1.5 1.6 2.3 3.4 2.3 5.8 0 2.2-.7 4.1-2.2 5.7-1.5 1.6-3.3 2.3-5.4 2.3-2.5 0-4.4-.8-5.9-2.6-1.5-1.7-2.3-4.2-2.3-7.4V.9h-5.9v24.2c0 4.4 1.3 8 3.9 10.7 2.6 2.8 5.9 4.2 10 4.2 3.9 0 7.3-1.4 9.9-4.1 2.7-2.7 4-6.1 4-10 0-3.7-1.3-7-4-9.6-2.7-2.7-5.9-4-9.6-4zM123.7 12.3c-2.2 0-4.4.6-6.4 1.9v6.5c1.1-.9 2-1.6 2.8-2 .9-.4 1.9-.6 3.2-.6 2.2 0 4.1.8 5.6 2.3 1.5 1.6 2.3 3.4 2.3 5.8 0 2.2-.7 4.1-2.2 5.7-1.5 1.6-3.3 2.3-5.4 2.3-2.5 0-4.4-.8-5.9-2.6-1.5-1.7-2.3-4.2-2.3-7.4V.9h-5.9v24.2c0 4.4 1.3 8 3.9 10.7 2.6 2.8 5.9 4.2 10 4.2 3.9 0 7.3-1.4 9.9-4.1 2.7-2.7 4-6.1 4-10 0-3.7-1.3-7-4-9.6-2.7-2.7-5.9-4-9.6-4zM139.9 12.8h5.9v26.7h-5.9zM142.8 10.2c1.1 0 2-.4 2.8-1.2.8-.8 1.2-1.7 1.2-2.8 0-1.1-.4-2-1.2-2.8s-1.7-1.2-2.8-1.2c-1.1 0-2.1.4-2.8 1.2-.8.8-1.2 1.7-1.2 2.8 0 1.1.4 2.1 1.2 2.8.7.8 1.6 1.2 2.8 1.2z"></path><path class="st1" d="M6.8 23.5c0-.1 0-.1 0 0 0-.1 0-.1 0 0zM6.8 23.5c0-.1 0-.1 0 0 0-.1 0-.1 0 0z"></path><path class="st2" d="M31.2 33.7c-.5.3-.9.6-1.4.9-.5.3-.9.5-1.4.8-.8.4-1.5.7-2.3 1-3.5 1.2-7.2 1.5-10.7.9-.9-.1-1.7-.4-2.6-.6C7.9 35.1 3.5 31.8.7 27c1.5-.9 3-1.8 4.4-2.6.5-.3 1.1-.6 1.6-.9.3.5.7 1 1 1.5.3.3.5.7.8 1 .6.6 1.2 1.2 1.9 1.7 2.5 1.9 5.5 2.8 8.6 2.8.6 0 1.2-.1 1.8-.1 1.8-.2 3.5-.8 5.2-1.8 1.6-1 3-2.2 4.1-3.7.3.7.6 1.4.8 2.2.9 2.2.9 4.5.3 6.6z"></path><path class="st1" d="M6.8 23.5c0-.1 0-.1 0 0 0-.1 0-.1 0 0z"></path><path class="st3" d="M12.6 10.3C10.4 13.4 9 17 8.6 21c-.3.3-.6.6-.8 1-.4.5-.7 1-1 1.5-.5-.3-1.1-.6-1.6-.9-1.5-.9-3-1.7-4.5-2.5 2.7-4.9 7-8.2 11.9-9.8z"></path><path class="st1" d="M6.8 23.5c0-.1 0-.1 0 0 0-.1 0-.1 0 0z"></path><path class="st3" d="M37.6 40.8c-1.5-.9-3-1.7-4.5-2.6-.5-.3-1.1-.6-1.6-.9.3-.5.5-1 .8-1.6.1-.3.3-.7.4-1 .3-.8.5-1.7.6-2.6.4-3.1-.3-6.2-1.8-8.8-.3-.5-.6-1-1-1.5-1.1-1.5-2.5-2.7-4.2-3.7-1.7-.9-3.4-1.5-5.2-1.7 1.7-2.6 4.2-4.5 7.2-5.3.5.2 1 .5 1.5.8l1.5.9c.7.5 1.4 1 2 1.5 2.8 2.4 4.8 5.5 6 8.9.3.8.6 1.7.7 2.6.9 4.9.3 10.3-2.4 15z"></path><path class="st2" d="M39.8 20.6c-1.6-3.4-4.1-6.5-7.3-8.8-.1-.4-.3-.7-.4-1.1-.2-.6-.5-1.1-.8-1.6.5-.3 1.1-.6 1.6-1l4.5-2.7c2.7 4.8 3.4 10.2 2.4 15.2z"></path><path class="st0" d="M31.2 9.1c-.6 0-1.2.1-1.8.1-.4 0-.8.1-1.1.2-.8.2-1.7.5-2.5.8-2.9 1.2-5.2 3.4-6.8 6.1-.3.5-.6 1.1-.8 1.7-.7 1.7-1 3.5-1 5.4 0 1.9.5 3.8 1.2 5.5-3.1-.2-6-1.5-8.2-3.6-.1-.6-.1-1.2-.1-1.8 0-.6 0-1.2.1-1.8.1-.8.2-1.7.3-2.5.7-3.6 2.3-6.9 4.6-9.6.6-.7 1.2-1.3 1.8-1.9 3.7-3.5 8.7-5.6 14.2-5.6v5.2c.1.5.1 1.2.1 1.8zM31.6 44.4c-5.4.1-10.4-2-14.2-5.4.6.1 1.2.1 1.8.1 3.3 0 6.5-.7 9.5-2.1.3.1.7.1 1.1.2.6.1 1.2.1 1.8.1v1.8c-.1 1.8 0 3.6 0 5.3z"></path></svg> 